# xmcd CD database generated by RipIT
#
# Track frame offsets:
# 150
# 20964
# 37627
# 56448
# 65790
# 81726
#
# Disc length: 1300 seconds
#
# Revision: 0
# Processed by: cddbd v1.5.2PL0 Copyright (c) Steve Scherf et al.
# Submitted via: RipIT 3.9.0 www.suwald.com/ripit/ripit.html on 2015-06-24 at 00:50
#
DISCID=50051206
DTITLE=Fit and the Conniptions - Live At Monkey Chews
DYEAR=2008
DGENRE=
TTITLE0=Sweet Sister Starlight
TTITLE1=Chez Tina
TTITLE2=Spellbound
TTITLE3=Mistress Song
TTITLE4=Wander In A Dream
TTITLE5=Storm's Over
EXTD=
EXTT0=
EXTT1=
EXTT2=
EXTT3=
EXTT4=
EXTT5=
PLAYORDER=
